<?xml version="1.0" encoding="UTF-8"?>
<svg width="170px" height="170px" viewBox="0 0 170 170" version="1.1" xmlns="http://www.w3.org/2000/svg" xmlns:xlink="http://www.w3.org/1999/xlink">
    <!-- Generator: sketchtool 63.1 (101010) - https://sketch.com -->
    <title>45B3D207-46DF-4566-B9EF-A2522D3754B1@1.5x</title>
    <desc>Created with sketchtool.</desc>
    <g id="Page-1" stroke="none" stroke-width="1" fill="none" fill-rule="evenodd">
        <g id="56-No-Results" transform="translate(-103.000000, -152.000000)">
            <g id="no-result" transform="translate(103.000000, 152.000000)">
                <g id="Group-2" fill="#E5E9ED" opacity="0.300000012">
                    <circle id="Oval" cx="85" cy="85" r="85"></circle>
                </g>
                <g id="No-result-icon" transform="translate(85.000000, 85.000000) scale(-1, 1) translate(-85.000000, -85.000000) translate(52.000000, 52.000000)" fill-rule="nonzero">
                    <path d="M58.3307227,7.66579687 C53.3872969,2.7225 46.8148828,0 39.8239102,0 C32.8329375,0 26.2603945,2.7225 21.3172266,7.66579687 C16.3738008,12.6090937 13.6514297,19.1815078 13.6514297,26.1724805 C13.6514297,30.949875 14.9236055,35.5314609 17.3063086,39.5316797 L1.90123828,54.9366211 C-0.623519531,57.4616367 -0.623519531,61.5700078 1.90136719,64.0951523 C3.12455859,65.3182148 4.75071094,65.9918789 6.48050391,65.9918789 C8.21042578,65.9918789 9.83657812,65.3182148 11.0596406,64.0951523 L26.464582,48.6902109 C30.4648008,51.0729141 35.0463867,52.3450898 39.8239102,52.3450898 C46.8147539,52.3450898 53.3872969,49.6225898 58.3305937,44.679293 C68.5353281,34.4745586 68.5353281,17.8704023 58.3307227,7.66579687 Z M55.5962344,41.9448047 C51.3831914,46.1577188 45.7818281,48.4779023 39.8240391,48.4779023 C33.8659922,48.4779023 28.2646289,46.1577188 24.0518437,41.9448047 C19.8389297,37.7318906 17.5187461,32.1305273 17.5187461,26.1726094 C17.5187461,20.2146914 19.8389297,14.6133281 24.0518437,10.4004141 C28.2645,6.18737109 33.8659922,3.8671875 39.8239102,3.8671875 C45.7818281,3.8671875 51.3831914,6.18737109 55.5961055,10.4002852 C64.2930234,19.0970742 64.2930234,33.2478867 55.5962344,41.9448047 Z" id="Shape" fill="#2B3F48"></path>
                    <path d="M8.32528125,61.3605352 C7.83260156,61.8532148 7.1775,62.1245625 6.48050391,62.1245625 C5.78376562,62.1245625 5.12853516,61.8532148 4.63585547,61.3605352 C3.61865625,60.3433359 3.61865625,58.6883086 4.63572656,57.6709805 L13.6674141,48.639293 L17.3568398,52.3287187 L8.32528125,61.3605352 Z" id="Path" fill="#B1BEB7"></path>
                    <path d="M20.091457,49.5943594 L16.4020312,45.9049336 L19.5626836,42.7442813 C20.1119531,43.4133047 20.6970586,44.059125 21.3172266,44.679293 C21.9373945,45.2994609 22.5832148,45.8844375 23.2521094,46.433707 L20.091457,49.5943594 Z" id="Path" fill="#759CAD"></path>
                    <path d="M53.0481445,12.9481172 C49.5158555,9.41582812 44.8194141,7.470375 39.8237813,7.470375 C34.8282773,7.470375 30.1318359,9.41569922 26.5995469,12.9481172 C23.0672578,16.4805352 21.1218047,21.1768477 21.1218047,26.1724805 C21.1218047,31.1679844 23.0672578,35.8644258 26.5995469,39.3967148 C30.1318359,42.9291328 34.8282773,44.874457 39.8237813,44.874457 C44.8194141,44.874457 49.5158555,42.9291328 53.0481445,39.3967148 C56.5804336,35.8644258 58.5258867,31.1679844 58.5258867,26.1724805 C58.5258867,21.1769766 56.5805625,16.4805352 53.0481445,12.9481172 Z M50.3136563,36.6623555 C47.51175,39.4642617 43.7863594,41.0073984 39.8237813,41.0073984 C35.861332,41.0073984 32.1359414,39.4642617 29.3340352,36.6623555 C26.5321289,33.8604492 24.9889922,30.1350586 24.9889922,26.1726094 C24.9889922,22.2100312 26.5321289,18.4846406 29.3340352,15.6827344 C32.1359414,12.8808281 35.861332,11.3376914 39.8237813,11.3376914 C43.7863594,11.3376914 47.51175,12.8808281 50.3136563,15.6827344 C53.1155625,18.4846406 54.6586992,22.2100312 54.6586992,26.1726094 C54.6586992,30.1349297 53.1156914,33.8603203 50.3136563,36.6623555 L50.3136563,36.6623555 Z" id="Shape" fill="#2B3F48"></path>
                    <path d="M40.4047318,16.514546 C36.9041055,16.2738858 33.9705882,19.0508986 33.9705882,22.5115824 C33.9705882,23.5522243 34.814155,24.395791 35.8547969,24.395791 C36.8954388,24.395791 37.7390055,23.5522243 37.7390055,22.5115824 C37.7390055,21.2191014 38.8272519,20.1826045 40.145482,20.2739198 C41.2336028,20.3490319 42.1448709,21.2601744 42.219983,22.3484208 C42.2912014,23.3807727 41.6581495,24.3249495 40.6805616,24.6446156 C39.1359903,25.1496755 38.0981118,26.5734142 38.0981118,28.1874454 L38.0981118,29.563454 C38.0981118,30.6040959 38.9416785,31.4476627 39.9823204,31.4476627 C41.0229623,31.4476627 41.8665291,30.6040959 41.8665291,29.563454 L41.8665291,28.2214845 C44.4786218,27.3599561 46.1692723,24.8405602 45.9794824,22.0890454 C45.7743685,19.1159623 43.3778149,16.7194087 40.4047318,16.514546 L40.4047318,16.514546 Z" id="Path" fill="#2B3F48" transform="translate(39.982281, 23.973831) scale(-1, 1) translate(-39.982281, -23.973831) "></path>
                    <path d="M39.7371498,33 C38.696508,33 37.8529412,33.8435668 37.8529412,34.8842087 L37.8529412,35.0199882 C37.8529412,36.0606301 38.696508,36.9041969 39.7371498,36.9041969 C40.7777917,36.9041969 41.6213585,36.0606301 41.6213585,35.0199882 L41.6213585,34.8842087 C41.6213585,33.8435668 40.7777917,33 39.7371498,33 Z" id="Path" fill="#2B3F48" transform="translate(39.737150, 34.952098) scale(-1, 1) translate(-39.737150, -34.952098) "></path>
                </g>
            </g>
        </g>
    </g>
</svg>