<?xml version="1.0" encoding="UTF-8"?>
<svg width="68px" height="68px" viewBox="0 0 68 68" version="1.1" xmlns="http://www.w3.org/2000/svg" xmlns:xlink="http://www.w3.org/1999/xlink">
    <title>2FD5395A-A1BF-4C57-BF2A-78B43FF275F9@1.5x</title>
    <defs>
        <circle id="path-1" cx="34" cy="34" r="34"></circle>
    </defs>
    <g id="Page-1" stroke="none" stroke-width="1" fill="none" fill-rule="evenodd">
        <g id="02-Place-holder---doctor" transform="translate(-19.000000, -131.000000)">
            <g id="dr-place-holder" transform="translate(19.000000, 131.000000)">
                <g id="Bitmap-Copy-2">
                    <mask id="mask-2" fill="white">
                        <use xlink:href="#path-1"></use>
                    </mask>
                    <use id="Mask" fill="#B6C6CD" xlink:href="#path-1"></use>
                </g>
                <path d="M26.5680118,25.4151849 C26.7712866,25.4463868 27.0566384,25.5103506 27.3113072,25.6398384 C27.3281828,25.6554393 27.3481268,25.6687001 27.3596329,25.6687001 L27.4371075,25.7038022 L27.5498674,25.7615257 L27.5498674,21.1888913 C27.5498674,19.9088345 28.5739122,18.867472 29.8319148,18.867472 L31.3852412,18.867472 C31.9298643,18.867472 32.4415031,19.0609237 32.8633942,19.4236454 L33.0214116,19.5515731 C33.3044622,19.7762266 33.6473446,19.899474 33.9840904,19.899474 C34.3208362,19.899474 34.6637187,19.7762266 34.9475363,19.5515731 L35.1055537,19.4228654 C35.5274448,19.0609237 36.0383166,18.867472 36.5837068,18.867472 L38.136266,18.867472 C39.3950357,18.867472 40.4183134,19.9088345 40.4183134,21.1888913 L40.4183134,25.7459248 L40.5625235,25.6718203 L40.5617564,25.6718203 C40.5602222,25.6718203 40.5978089,25.6359382 40.6407651,25.6359382 C40.8739558,25.5282917 41.1171185,25.4549673 41.3694861,25.4151849 L41.3694861,19.5125708 C41.3694861,17.682581 39.9043733,16.1934716 38.104816,16.1934716 L29.8319148,16.1934716 C28.0323575,16.1934716 26.5680118,17.682581 26.5680118,19.5125708 L26.5680118,25.4151849 Z M25.7610491,26.5142709 C25.7434064,26.5641939 25.7434064,26.6148969 25.7434064,26.6679401 L25.7434064,27.5384723 C25.7434064,27.8122687 25.9804325,28.0540832 26.2504428,28.0540832 L26.5357946,28.0540832 L26.5357946,26.6297178 C26.2673185,26.5719943 26.0310594,26.5712143 26.0287582,26.5712143 C25.9382434,26.5712143 25.8484957,26.5439126 25.7610491,26.5142709 L25.7610491,26.5142709 Z M41.7491881,28.0540832 C42.015363,28.0540832 42.2562245,27.8075885 42.2562245,27.5384723 L42.2562245,26.6679401 C42.2562245,26.6148969 42.2562245,26.5641939 42.2393489,26.5142709 C42.1511353,26.5439126 42.0613875,26.5712143 41.9708727,26.5712143 C41.9685715,26.5712143 41.7323125,26.5719943 41.4646034,26.6297178 L41.4646034,28.0540832 L41.7491881,28.0540832 Z M30.7125166,33.8599716 C30.7217215,33.8599716 30.7339947,33.8732324 30.7416655,33.8810329 C31.7588066,34.6384583 32.861093,35.016001 34.0477576,35.016001 C35.2344223,35.016001 36.3367087,34.6384583 37.324701,33.8935136 C37.3622876,33.8716723 37.3783962,33.8552913 37.407545,33.8552913 C37.8601191,33.4949097 38.3057896,33.0417025 38.7138733,32.5143909 C39.7586291,31.1610097 40.3239632,29.5548933 40.3239632,28.7303838 L40.3239632,27.2943177 C40.260296,27.3130388 40.1858898,27.3130388 40.1329616,27.3130388 C40.0010248,27.3130388 39.9020721,27.2794968 39.8061878,27.2467348 C39.5024262,27.1094466 39.3083563,26.8067884 39.3083563,26.4744885 L39.3083563,21.2208733 C39.3083563,20.5983959 38.8112918,20.0929256 38.1999332,20.0929256 L36.6466069,20.0929256 C36.3696929,20.0929256 36.1211607,20.1880913 35.9071468,20.3753025 L35.7475953,20.5047903 C35.2566674,20.9041743 34.6414735,21.1241474 34.0163076,21.1241474 C33.3903746,21.1241474 32.7751806,20.9041743 32.2842528,20.5047903 L32.1262354,20.3760826 C31.9106874,20.1880913 31.6621552,20.0929256 31.3852412,20.0929256 L29.8319148,20.0929256 C29.2205562,20.0929256 28.7234918,20.5983959 28.7234918,21.2208733 L28.7234918,26.4744885 C28.7234918,26.8067884 28.5294219,27.1094466 28.2287286,27.2451747 C28.0883539,27.2927576 27.9725256,27.3153789 27.8705047,27.3153789 C27.8129741,27.3153789 27.7585118,27.3083585 27.7086519,27.2927576 L27.7086519,28.7303838 C27.7086519,29.5751745 28.294697,31.1875313 29.3808749,32.5136108 C29.7889586,33.0417025 30.2353961,33.4949097 30.7071471,33.8615317 C30.7086813,33.8607516 30.7102154,33.8599716 30.7125166,33.8599716 L30.7125166,33.8599716 Z M29.7375646,34.6985219 C28.1382138,34.9590575 26.8518294,36.1743705 26.5150836,37.7414845 L28.396718,37.1759506 L28.43814,37.1751705 C28.571611,37.1470888 28.7096845,37.1322679 28.8408542,37.1322679 C29.043362,37.1322679 29.2251587,37.16659 29.3808749,37.232894 C29.5948887,37.0059004 29.7375646,36.6361582 29.7375646,36.3046383 L29.7375646,34.6985219 Z M39.1388327,37.1704902 C39.2937818,37.1704902 39.4502651,37.1946717 39.602913,37.2406944 L41.4860815,37.8062284 C41.1554723,36.2063524 39.8690879,34.9652979 38.2628334,34.6985219 L38.2628334,36.3366202 C38.2628334,36.6509791 38.3963044,36.9973198 38.6210573,37.2648759 C38.7836771,37.2024721 38.9578031,37.1704902 39.1388327,37.1704902 L39.1388327,37.1704902 Z M33.9840904,40.7119027 L37.6154223,37.9427366 C37.2664033,37.4864092 37.0592931,36.8888933 37.0592931,36.3366202 L37.0592931,35.4567274 C36.1196265,35.9770186 35.0856098,36.2406744 33.9840904,36.2406744 C32.8825711,36.2406744 31.8485543,35.9770186 30.9096548,35.4567274 L30.9096548,36.3366202 C30.9096548,36.8561314 30.7071471,37.4396064 30.3519915,37.9419565 L33.9840904,40.7119027 Z M36.4364284,41.850771 L36.9779832,42.0036602 C36.9894893,41.9771386 37.0017625,41.9474968 37.0125015,41.9186351 C37.0293772,41.8772926 37.0454858,41.8351701 37.0623614,41.8016281 C37.0922773,41.7088025 37.1244945,41.6432786 37.1559445,41.5785347 L37.1536433,41.5582535 L37.2518289,41.350761 L37.2487606,41.33282 C37.2878814,41.1916315 37.33544,41.0691641 37.3822316,40.9521571 C37.4144487,40.8694722 37.4458988,40.7899074 37.4727464,40.7103426 L37.4796501,40.6885013 L37.5026623,40.6885013 C37.520305,40.6424785 37.5279758,40.6198572 37.5356465,40.5972358 C37.5440843,40.5722743 37.5525222,40.5457527 37.5693978,40.5122107 C37.5655624,40.4973898 37.5809039,40.4810089 37.5908759,40.4724283 C37.6154223,40.4178251 37.623093,40.3952037 37.6307638,40.3725824 C37.6392016,40.3468408 37.6468724,40.3210993 37.663748,40.2867772 L37.6729529,40.2696162 L37.6921298,40.2696162 C37.7588653,40.1580695 37.7887812,40.066024 37.8209983,39.9692982 L37.8194642,39.9466768 C37.8194642,39.9022141 37.8325044,39.8710123 37.8417093,39.8476109 C37.8509142,39.7945677 37.8616533,39.7735064 37.8700911,39.7555653 C37.8762277,39.7430846 37.8831314,39.7298238 37.8831314,39.7212433 L37.8831314,39.6892614 L37.9145814,39.6892614 L37.9176497,39.6424585 L38.012767,39.4490069 C38.0426829,39.3569614 38.0749001,39.2914375 38.1055831,39.2266936 L38.1078843,39.1908114 L38.2007003,39.0028202 L35.1569477,41.2930376 L36.4364284,41.850771 Z M30.4240965,40.7563654 C30.4509441,40.7657259 30.4655186,40.7922475 30.4655186,40.817209 C30.521515,40.9232954 30.5698407,41.0449827 30.6197006,41.1736904 C30.6496165,41.2516951 30.6810666,41.3312599 30.7171191,41.417065 L30.8145376,41.615977 L30.8145376,41.6549793 C30.8283449,41.6744805 30.8444535,41.7150429 30.8605621,41.7571654 C30.8759036,41.7961678 30.891245,41.8351701 30.9065865,41.866372 C30.9226951,41.8991339 30.9388037,41.9412565 30.9549123,41.9810389 C30.9664184,42.0106806 30.9779245,42.0395424 30.9894306,42.066064 L31.5325195,41.850771 L32.7774819,41.3882033 L29.7367976,39.099546 C29.7375646,39.1034462 29.7375646,39.1057863 29.7375646,39.1089065 C29.7498378,39.1268476 29.7659464,39.1681901 29.7812879,39.2087525 C29.7973965,39.2477549 29.812738,39.2883173 29.8288465,39.3202992 C29.8909796,39.4466668 29.9531126,39.6034562 30.0152457,39.7625858 L30.0190811,39.7922275 C30.0420933,39.8031482 30.0543665,39.8273296 30.0543665,39.850731 C30.0543665,39.8593116 30.0605031,39.8717923 30.0674068,39.8842731 C30.0758446,39.9022141 30.0858166,39.9232754 30.0858166,39.9466768 C30.0858166,39.9560374 30.0927202,39.9685181 30.0988568,39.9809989 C30.1065276,39.9981599 30.1157325,40.0176611 30.1172666,40.0387223 L30.1180337,40.0387223 C30.1241703,40.0387223 30.1494838,40.0714843 30.1494838,40.1081465 C30.1763314,40.1557293 30.2062473,40.2462148 30.2369303,40.3382603 C30.2622438,40.3484009 30.2760511,40.3741424 30.2760511,40.3983239 C30.2898584,40.4178251 30.2975292,40.4435666 30.305967,40.4693082 C30.3136378,40.4919295 30.3213085,40.5145509 30.3358829,40.5449727 C30.3657988,40.5730544 30.3704013,40.5808549 30.3704013,40.6237574 C30.3849757,40.6432586 30.3926465,40.6697802 30.4010843,40.6947417 C30.407988,40.7134628 30.4141246,40.732964 30.4240965,40.7563654 L30.4240965,40.7563654 Z M33.3420489,43.3422205 L34.6499113,43.3312999 L35.231354,42.6347181 L33.9840904,42.1089665 L32.737594,42.6347181 L33.3420489,43.3422205 Z M31.5463269,43.5114907 C31.6636893,43.8274096 31.7841201,44.1526892 31.9214264,44.4787487 C32.0288169,44.7252435 32.1408098,44.9787587 32.2313246,45.2346141 L32.4315311,44.0988659 L31.598488,43.1121067 L31.4258961,43.1869912 L31.5463269,43.5114907 Z M35.529746,44.1253875 L35.7391575,45.2525552 C35.785949,45.1402284 35.8281381,45.0294618 35.8718614,44.917135 C35.9270908,44.7704862 35.9830872,44.6246175 36.0467544,44.4779687 C36.2323865,44.0091605 36.3873356,43.599636 36.5407506,43.1916715 L36.3719941,43.1425286 L35.529746,44.1253875 Z M42.1611072,43.5567334 C41.1999626,43.5567334 40.4183134,44.3516011 40.4183134,45.3289997 C40.4183134,46.3063984 41.1999626,47.1020461 42.1611072,47.1020461 C43.1222519,47.1020461 43.9054352,46.3063984 43.9054352,45.3289997 C43.9054352,44.3516011 43.1222519,43.5567334 42.1611072,43.5567334 L42.1611072,43.5567334 Z M33.0651349,47.4304458 C33.2369596,47.8797528 33.4026478,48.3298398 33.5568298,48.7479449 C33.7117789,49.1676101 33.8552219,49.5552933 33.9817892,49.8953937 C33.9925283,49.9024141 34.0009661,49.917235 34.0086368,49.9320559 C34.102987,49.6777607 34.2065421,49.3938236 34.318535,49.0872652 C34.5018659,48.582575 34.7074419,48.0154809 34.9375643,47.4125048 L34.4642792,44.5559734 L33.5982518,44.5559734 L33.0651349,47.4304458 Z M21.0933993,40.7509051 C20.4697675,40.9412365 20.0049202,41.4755685 19.91057,42.1105266 L19.2140662,46.2049923 C19.2140662,46.2237134 19.2040942,46.2439946 19.1956564,46.2627158 C19.1895198,46.2751965 19.1826161,46.2876773 19.1826161,46.2970378 L18.1999933,52.199652 C18.1739128,52.3346001 18.2161019,52.4851491 18.3211911,52.6263376 C18.4040352,52.7394444 18.5490123,52.8065284 18.7077968,52.8065284 L49.2926012,52.8065284 C49.4513857,52.8065284 49.5963628,52.7394444 49.6792069,52.6271176 C49.7988705,52.5046503 49.8310877,52.3548813 49.8633048,52.1567494 L48.1841782,42.0793248 C48.0599121,41.416285 47.6173099,40.9069144 47.002116,40.7189231 L42.8269281,39.4419865 L42.8269281,42.4022641 C44.1877187,42.7119427 45.1726427,43.9381763 45.1726427,45.3289997 C45.1726427,46.9819189 43.8502058,48.3267196 42.2247745,48.3267196 C40.5993431,48.3267196 39.2769062,46.9819189 39.2769062,45.3289997 C39.2769062,43.9054143 40.2625972,42.6784007 41.6226208,42.4022641 L41.6226208,39.1011061 L39.7386852,38.5347921 C39.5461494,38.9684981 39.1449693,39.9458968 38.545884,41.4420265 C37.9529352,42.9490769 37.1973666,44.9257155 36.1694864,47.6621197 C36.1510766,47.683961 36.1411046,47.6941016 36.1403375,47.6964418 C35.4745167,49.4484269 34.9268253,50.9375363 34.58471,51.883733 C34.4773195,52.1029262 34.2387592,52.2589355 34.0163076,52.2589355 C33.7516668,52.2589355 33.5499261,52.1263276 33.4479052,51.8852931 L33.3221049,51.5522131 C32.8833382,50.3930636 32.3862737,49.0794648 31.8945788,47.7260836 C31.86543,47.700342 31.8600605,47.6933216 31.8600605,47.650419 C30.8344815,44.9257155 30.0789129,42.949857 29.4859641,41.4420265 L29.2243916,40.7891273 C28.7188894,39.5246715 28.458851,38.8756725 28.2939299,38.5347921 L26.4092273,39.1011061 L26.4092273,40.5324919 C27.3450585,40.7056623 28.1244064,41.3359402 28.4987389,42.2228534 C28.6168684,42.4927496 28.6882064,42.782927 28.7234918,43.1347281 L29.1354109,48.4530872 C29.166861,48.8345301 29.0172814,49.2635558 28.7465041,49.5732344 C28.4979718,49.8579515 28.0875868,50.0350221 27.6764348,50.0350221 L26.9791638,50.0350221 C26.6477875,50.0350221 26.3777772,49.7604456 26.3777772,49.4226854 C26.3777772,49.0849251 26.6477875,48.8103486 26.9791638,48.8103486 L27.6764348,48.8103486 C27.7585118,48.8103486 27.8145082,48.7861672 27.8766413,48.7229834 C27.9380073,48.6605796 27.9617866,48.6044163 27.9617866,48.5201712 L27.5498674,43.2049323 C27.5498674,43.0083605 27.4831319,42.8141288 27.4256013,42.66592 C27.1801374,42.0418825 26.5963935,41.6549793 25.9021909,41.6549793 L25.8070736,41.6549793 C25.1197746,41.6549793 24.466227,42.1066264 24.251446,42.7291037 C24.189313,42.8874532 24.15863,43.0465828 24.15863,43.2025922 L23.7467108,48.5232914 C23.7467108,48.5778947 23.7758597,48.66682 23.8326232,48.7229834 C23.8947563,48.7861672 23.9507527,48.8103486 24.0320626,48.8103486 L24.7301007,48.8103486 C25.061477,48.8103486 25.3314873,49.0849251 25.3314873,49.4226854 C25.3314873,49.7604456 25.061477,50.0350221 24.7301007,50.0350221 L24.0320626,50.0350221 C23.6209106,50.0350221 23.2112927,49.8579515 22.9627605,49.5732344 C22.6850794,49.2916375 22.5401023,48.8727524 22.5746206,48.4530872 L22.9865398,43.1355081 C22.9865398,42.9030542 23.0379338,42.6456387 23.1468584,42.3531212 C23.4582907,41.4342261 24.2698558,40.7392044 25.2685871,40.533272 L25.2685871,39.4747485 L21.0933993,40.7509051 Z M18.7077968,54 C18.2184031,54 17.735146,53.766766 17.4152759,53.3759626 C17.0792971,52.9656579 16.93432,52.4375663 17.0279031,51.9625178 L18.1056431,45.5177711 C18.1056431,45.4990499 18.114848,45.4787687 18.1240529,45.4600476 C18.1301895,45.4483469 18.1370932,45.4350861 18.1370932,45.4257255 L18.740014,41.8757325 C18.8987984,40.7766466 19.6597366,39.8905134 20.7267376,39.5621137 L25.2708884,38.1822109 C25.4664924,36.1096266 26.8763758,34.3077185 28.7902273,33.6797808 C28.6467843,33.5276717 28.5278877,33.3771226 28.4128265,33.2312539 C27.3151426,31.8185891 26.7597805,30.2522551 26.6040643,29.2459948 L26.28266,29.2459948 C25.3560337,29.2459948 24.6027663,28.4799888 24.6027663,27.5384723 L24.6027663,26.6679401 C24.6027663,26.0595036 24.9379779,25.4721283 25.4588217,25.16713 L25.4588217,19.5125708 C25.4588217,17.0242215 27.4486136,15 29.895582,15 L38.1677161,15 C40.6146846,15 42.6052435,17.0242215 42.6052435,19.5125708 L42.6052435,25.16713 C43.1260873,25.4721283 43.4605319,26.0595036 43.4605319,26.6679401 L43.4605319,27.5384723 C43.4605319,28.4799888 42.7072645,29.2459948 41.7814052,29.2459948 L41.460768,29.2459948 C41.338036,30.1867312 40.8003166,31.7179631 39.6512387,33.2304738 C39.5323421,33.3810229 39.4142126,33.5307918 39.2723037,33.6805608 C40.1375641,33.9816589 40.8724217,34.466848 41.4561656,35.1228674 C42.2102,35.9855991 42.6604729,37.0425626 42.7617268,38.1822109 L47.3051105,39.5621137 C48.3406614,39.8905134 49.1015996,40.7766466 49.2926012,41.8757325 L50.9717278,51.9632978 C51.066078,52.4718883 50.9211009,52.99998 50.5843551,53.3767426 C50.25528,53.7776867 49.7958022,54 49.2926012,54 L18.7077968,54 Z" id="Fill-1" fill="#FFFFFF"></path>
            </g>
        </g>
    </g>
</svg>