<?xml version="1.0" encoding="UTF-8"?>
<svg width="56px" height="48px" viewBox="0 0 56 48" version="1.1" xmlns="http://www.w3.org/2000/svg" xmlns:xlink="http://www.w3.org/1999/xlink">
    <!-- Generator: sketchtool 63.1 (101010) - https://sketch.com -->
    <title>E2C7E70B-6909-4EEF-9322-656891CD4B04@1.5x</title>
    <desc>Created with sketchtool.</desc>
    <g id="Page-1" stroke="none" stroke-width="1" fill="none" fill-rule="evenodd">
        <g id="57-Error-Message" transform="translate(-160.000000, -286.000000)">
            <g id="Group-6" transform="translate(50.000000, 238.000000)">
                <g id="error-icon" transform="translate(112.000000, 50.000000)">
                    <path d="M51.8165875,42.0306649 L39.4947827,21.3434565 L27.1729778,0.656379377 C26.6516514,-0.218793126 25.3484031,-0.218793126 24.8270767,0.656379377 L12.5052719,21.3434565 L0.183467073,42.0306649 C-0.337859329,42.9058374 0.313900257,44 1.35655306,44 L26.0000273,44 L50.6436369,44 C51.6861543,44 52.3377784,42.9058374 51.8165875,42.0306649 L51.8165875,42.0306649 Z" id="Path" stroke="#2B3F48" stroke-width="3.63" fill="#759CAD"></path>
                    <path d="M27.63,26.3903968 C27.63,27.7646249 26.815747,28.882759 25.815,28.882759 C24.814253,28.882759 24,27.7646249 24,26.3903968 L24,18.4923622 C24,17.1181341 24.814253,16 25.815,16 C26.815747,16 27.63,17.1181341 27.63,18.4923622 L27.63,26.3903968 Z" id="Path" fill="#2B3F48"></path>
                    <path d="M25.815,34.63 C24.8142278,34.63 24,33.8157722 24,32.815 C24,31.8142278 24.8142278,31 25.815,31 C26.8157722,31 27.63,31.8142278 27.63,32.815 C27.63,33.8157722 26.8156642,34.63 25.815,34.63 L25.815,34.63 Z" id="Path" fill="#2B3F48"></path>
                </g>
            </g>
        </g>
    </g>
</svg>