<?xml version="1.0" encoding="UTF-8"?>
<svg width="22px" height="22px" viewBox="0 0 22 22" version="1.1" xmlns="http://www.w3.org/2000/svg" xmlns:xlink="http://www.w3.org/1999/xlink">
    <title>4F0689B2-BC9F-46B9-84BC-DE4A57E9CDCF</title>
    <g id="Page-1" stroke="none" stroke-width="1" fill="none" fill-rule="evenodd">
        <g id="22-Add-new-member-" transform="translate(-316.000000, -486.000000)" fill="#749BAD" fill-rule="nonzero">
            <g id="Text-Filed" transform="translate(20.000000, 454.000000)">
                <g id="ic_calendar" transform="translate(296.000000, 32.000000)">
                    <path d="M19.1640625,1.71875 L17.1875,1.71875 L17.1875,0.6875 C17.1875,0.307828125 16.8797148,0 16.5,0 C16.1202852,0 15.8125,0.307828125 15.8125,0.6875 L15.8125,1.71875 L6.1875,1.71875 L6.1875,0.6875 C6.1875,0.307828125 5.87971484,0 5.5,0 C5.12028516,0 4.8125,0.307828125 4.8125,0.6875 L4.8125,1.71875 L2.8359375,1.71875 C1.27217578,1.71875 0,2.99092578 0,4.5546875 L0,19.1640625 C0,20.7278242 1.27217578,22 2.8359375,22 L19.1640625,22 C20.7278242,22 22,20.7278242 22,19.1640625 L22,4.5546875 C22,2.99092578 20.7278242,1.71875 19.1640625,1.71875 Z M2.8359375,3.09375 L4.8125,3.09375 L4.8125,3.78125 C4.8125,4.16092187 5.12028516,4.46875 5.5,4.46875 C5.87971484,4.46875 6.1875,4.16092187 6.1875,3.78125 L6.1875,3.09375 L15.8125,3.09375 L15.8125,3.78125 C15.8125,4.16092187 16.1202852,4.46875 16.5,4.46875 C16.8797148,4.46875 17.1875,4.16092187 17.1875,3.78125 L17.1875,3.09375 L19.1640625,3.09375 C19.9696406,3.09375 20.625,3.74910937 20.625,4.5546875 L20.625,6.1875 L1.375,6.1875 L1.375,4.5546875 C1.375,3.74910937 2.03035938,3.09375 2.8359375,3.09375 Z M19.1640625,20.625 L2.8359375,20.625 C2.03035937,20.625 1.375,19.9696406 1.375,19.1640625 L1.375,7.5625 L20.625,7.5625 L20.625,19.1640625 C20.625,19.9696406 19.9696406,20.625 19.1640625,20.625 Z" id="Shape"></path>
                </g>
            </g>
        </g>
    </g>
</svg>